<svg xmlns="http://www.w3.org/2000/svg" xmlns:xlink="http://www.w3.org/1999/xlink" width="47" height="47" viewBox="0 0 47 47">
    <defs>
        <circle id="a" cx="7" cy="12" r="3"/>
        <circle id="b" cx="22.5" cy="3.5" r="3.5"/>
    </defs>
    <g fill="none" fill-rule="evenodd" transform="translate(8 4)">
        <rect width="8" height="9" y="15" fill="#CDCDCD" rx="4"/>
        <path fill="#CDCDCD" d="M3.931 23.843l-.239 2.154-2.315 2.423c-.574.992-.493 1.804.243 2.435.736.63 1.573.574 2.513-.17l2.643-2.678-.413 2.679c-.041 1.05.499 1.65 1.62 1.796 1.122.147 1.803-.396 2.043-1.627l.586-3.772-.717-2.824.13-2.477 3.188-.375c.952-.437 1.354-1.072 1.205-1.906-.15-.834-.697-1.298-1.644-1.394l-2.655.224c-.49-1.28-1.05-2.003-1.679-2.17-.628-.168-1.572-.204-2.83-.11l-1.679 7.792z"/>
        <path fill="#CDCDCD" d="M20.376 8l-2.69.96-3.015 4.828L13 17.584l1.671 3.358c.594-.036 1.004-.15 1.23-.343.227-.194.368-.388.425-.584l.857 4.11-2.111 5.307c-.417 1.497.056 2.47 1.42 2.917 1.363.447 2.316-.168 2.86-1.846l2.2-5.76-.213-2.52.91 1.902 1.69 6.878c.431 1.167 1.248 1.616 2.45 1.346 1.204-.27 1.78-1.065 1.728-2.386L26.49 22.93l-1.987-4.215.117-1.211 2.354 1.89c.977.826 1.836.775 2.577-.154.74-.929.74-1.831 0-2.708l-3.867-3.032-.644-.888.143-1.546c.065-1.438-.349-2.29-1.242-2.558-.893-.268-2.081-.437-3.564-.507z"/>
        <use fill="#CDCDCD" xlink:href="#a"/>
        <circle cx="7" cy="12" r="4" stroke="#FFF" stroke-width="2"/>
        <g>
            <use fill="#CDCDCD" xlink:href="#b"/>
            <circle cx="22.5" cy="3.5" r="4.5" stroke="#FFF" stroke-width="2"/>
        </g>
    </g>
</svg>
