<svg xmlns="http://www.w3.org/2000/svg" width="47" height="47" viewBox="0 0 47 47">
    <g fill="none" fill-rule="evenodd" transform="translate(6 6)">
        <rect width="29" height="28" y="6" fill="#CDCDCD" rx="2"/>
        <rect width="20" height="2" x="4" y="27" fill="#FFF" rx="1"/>
        <path fill="#FFF" d="M23.683 1.079L6.797 16.946c-.266.298-.509.814-.726 1.547-.218.733-.826 3.523-1.825 8.37-.328.814-.328 1.375 0 1.684.33.309 1.065.309 2.209 0l8.503-2.484L32.631 8.897c1.248-1.777.555-3.968-2.079-6.573C27.92-.28 25.63-.696 23.683 1.08z"/>
        <path fill="#CDCDCD" d="M7.526 20l5.088 4.83L6 26.8zM8.139 17.826l6.497 6.058 13.947-13.79-6.114-5.417zM23.765 3.707L29.5 8.995c2.234-1.6 2.296-3.294.187-5.084-2.11-1.79-3.554-2.323-4.332-1.597l-1.589 1.393z"/>
    </g>
</svg>
