<svg xmlns="http://www.w3.org/2000/svg" xmlns:xlink="http://www.w3.org/1999/xlink" width="47" height="47" viewBox="0 0 47 47">
    <defs>
        <circle id="a" cx="15.5" cy="13.5" r="9.5"/>
        <path id="b" d="M26 9V7h4v2h1v2.207a5.502 5.502 0 0 1 3 8.456V31a2 2 0 0 1-2 2h-8a2 2 0 0 1-2-2V19.663a5.502 5.502 0 0 1 3-8.456V9h1z"/>
    </defs>
    <g fill="none" fill-rule="evenodd" transform="translate(5 6)">
        <circle cx="15.5" cy="13.5" r="13.5" fill="#CDCDCD"/>
        <use fill="#CDCDCD" xlink:href="#a"/>
        <circle cx="15.5" cy="13.5" r="10" stroke="#FFF"/>
        <use fill="#CDCDCD" xlink:href="#b"/>
        <path stroke="#FFF" d="M25.5 8.5v-2h5v2h1v2.341a6.003 6.003 0 0 1 3 8.977V31a2.5 2.5 0 0 1-2.5 2.5h-8a2.5 2.5 0 0 1-2.5-2.5V19.818a6.003 6.003 0 0 1 3-8.976V8.5h1z"/>
        <path fill="#FFF" d="M23 27h10v1H23z"/>
        <path fill="#FFF" fill-rule="nonzero" d="M15.5 9h-1c0 1.93-1.57 3.5-3.5 3.5v1c1.93 0 3.5 1.57 3.5 3.5h1c0-1.93 1.57-3.5 3.5-3.5v-1c-1.93 0-3.5-1.57-3.5-3.5z"/>
        <path fill="#CDCDCD" fill-rule="nonzero" d="M4.5 24h-1c0 1.93-1.57 3.5-3.5 3.5v1c1.93 0 3.5 1.57 3.5 3.5h1c0-1.93 1.57-3.5 3.5-3.5v-1c-1.93 0-3.5-1.57-3.5-3.5z"/>
    </g>
</svg>
