<svg xmlns="http://www.w3.org/2000/svg" width="47" height="47" viewBox="0 0 47 47">
    <g fill="#CDCDCD" fill-rule="nonzero">
        <path d="M36.556 32.542V7.034v-.03a.979.979 0 0 0-.63-.926c-.525-.211-1.13.022-1.352.521-.15.336-3.654 8.283-3.573 13.935.035 2.38.679 3.939 1.915 4.633a2.973 2.973 0 0 0 1.472.376l.105-.002v7.001c-1.415.42-2.444 1.675-2.444 3.155 0 1.821 1.559 3.303 3.475 3.303C37.441 39 39 37.518 39 35.697c0-1.48-1.03-2.736-2.444-3.155zm-1.032 4.497c-.778 0-1.412-.602-1.412-1.342 0-.74.634-1.342 1.412-1.342.779 0 1.412.602 1.412 1.342 0 .74-.633 1.342-1.412 1.342zM16.642 17.7c1.34-1.184 1.363-2.811 1.358-3.064V7.667c0-.542-.495-.98-1.105-.98s-1.105.438-1.105.98v6.999c0 .01.005 1.025-.718 1.653-.25.218-.574.371-.967.46V6.982C14.105 6.439 13.61 6 13 6s-1.105.44-1.105.98v9.8c-.393-.09-.717-.243-.967-.461-.723-.628-.718-1.644-.718-1.646V7.667c0-.542-.494-.98-1.105-.98-.61 0-1.105.438-1.105.98v6.968c-.005.254.018 1.88 1.358 3.065.665.587 1.516.946 2.537 1.077v13.765c-1.515.419-2.617 1.675-2.617 3.155C9.278 37.518 10.948 39 13 39s3.722-1.482 3.722-3.303c0-1.48-1.102-2.736-2.617-3.155V18.777c1.021-.13 1.872-.49 2.537-1.077zm-2.13 17.997c0 .74-.678 1.342-1.512 1.342s-1.512-.602-1.512-1.342c0-.74.678-1.342 1.512-1.342s1.512.602 1.512 1.342zM30 13.445C30 9.27 27.804 6 25 6s-5 3.27-5 7.445c0 3.636 1.667 6.586 3.95 7.286v11.811c-1.439.42-2.486 1.675-2.486 3.155C21.464 37.518 23.05 39 25 39s3.536-1.482 3.536-3.303c0-1.48-1.047-2.736-2.486-3.155V20.731c2.283-.7 3.95-3.65 3.95-7.286zm-3.563 22.252c0 .74-.645 1.342-1.437 1.342s-1.437-.602-1.437-1.342c0-.74.645-1.342 1.437-1.342s1.437.602 1.437 1.342z"/>
    </g>
</svg>
