<svg xmlns="http://www.w3.org/2000/svg" width="47" height="47" viewBox="0 0 47 47">
    <g fill="none" fill-rule="nonzero">
        <path fill="#CDCDCD" d="M37.38 22.056h-5.556l2.31-2.309a3.623 3.623 0 0 0 0-5.12l-7.577-7.57A3.595 3.595 0 0 0 24 6c-.964 0-1.874.375-2.557 1.057l-7.57 7.57a3.623 3.623 0 0 0 0 5.12l2.31 2.31h-5.555A3.629 3.629 0 0 0 7 25.676V36.38A3.628 3.628 0 0 0 10.62 40h10.703A3.615 3.615 0 0 0 24 38.809 3.604 3.604 0 0 0 26.677 40H37.38A3.628 3.628 0 0 0 41 36.38V25.676a3.628 3.628 0 0 0-3.62-3.62z"/>
        <path fill="#FFF" d="M28.547 17.945l-6.465-2.878a.769.769 0 0 0-.856.156.757.757 0 0 0-.156.855l2.88 6.463c.17.387.631.57 1.018.387a.787.787 0 0 0 .38-1.011l-.652-1.46 1.76-1.758 1.46.652c.387.17.842 0 1.018-.387a.776.776 0 0 0-.387-1.019zm-4.523 1.005l-.74-1.656 1.664.74-.924.916zM19 29.387C19 28.067 17.895 27 16.541 27h-1.76c-.436 0-.781.34-.781.753V34.247c0 .42.352.753.78.753h1.761C17.895 35 19 33.933 19 32.627c0-.627-.256-1.2-.677-1.62.415-.427.677-.994.677-1.62zm-2.459 4.093h-.98v-1.727h.98c.49 0 .891.387.891.86 0 .48-.4.867-.89.867zm0-3.247h-.98v-1.726h.98c.49 0 .891.386.891.86 0 .48-.4.866-.89.866zM34.328 32.687c-.507.513-1.23.8-1.984.8-1.491 0-2.7-1.114-2.7-2.487s1.209-2.487 2.7-2.487c.869 0 1.658.367 2.172 1.007.268.333.782.407 1.151.16a.723.723 0 0 0 .174-1.06c-.818-1.013-2.128-1.62-3.497-1.62C29.948 27 28 28.793 28 31s1.948 4 4.344 4c1.21 0 2.375-.473 3.193-1.293a.716.716 0 0 0-.05-1.067.873.873 0 0 0-1.159.047z"/>
    </g>
</svg>
