<svg xmlns="http://www.w3.org/2000/svg" xmlns:xlink="http://www.w3.org/1999/xlink" width="47" height="47" viewBox="0 0 47 47">
    <defs>
        <path id="a" d="M17 0C7.604 0 0 7.602 0 16.998.004 26.468 7.686 34 17 34c9.336 0 16.996-7.555 17-16.996C34 7.603 26.397 0 17 0z"/>
    </defs>
    <g fill="none" fill-rule="nonzero">
        <g transform="translate(6 6)">
            <use fill="#FFF" fill-rule="evenodd" xlink:href="#a"/>
            <path stroke="#CDCDCD" stroke-width="2" d="M17-1c9.95 0 18 8.051 18 18.004C34.996 26.963 26.923 35 17 35 7.083 35-.996 26.97-1 16.998-1 7.05 7.052-1 17-1z"/>
        </g>
        <path fill="#CDCDCD" d="M37.012 23.998h.962a14.894 14.894 0 0 1-1.503 5.63l-.838-.483a.996.996 0 0 0-.996 1.725l.835.482a15.223 15.223 0 0 1-4.122 4.12l-.481-.835a.996.996 0 0 0-1.726.996l.483.836a14.9 14.9 0 0 1-5.63 1.5v-.957a.996.996 0 0 0-1.992 0v.958a14.9 14.9 0 0 1-5.63-1.501l.483-.836a.996.996 0 1 0-1.725-.996l-.482.834a15.224 15.224 0 0 1-4.122-4.119l.836-.482a.996.996 0 1 0-.997-1.725l-.837.484a14.894 14.894 0 0 1-1.504-5.63h.962a.996.996 0 1 0 0-1.992h-.963c.128-1.981.64-3.887 1.5-5.633l.842.486a.996.996 0 0 0 .997-1.725l-.84-.485a15.225 15.225 0 0 1 4.122-4.123l.485.84a.996.996 0 0 0 1.726-.995l-.487-.844a14.9 14.9 0 0 1 5.634-1.503v.968a.996.996 0 0 0 1.992 0v-.968a14.9 14.9 0 0 1 5.634 1.503l-.487.844a.996.996 0 1 0 1.726.996l.485-.841a15.225 15.225 0 0 1 4.123 4.123l-.84.485a.996.996 0 1 0 .996 1.725l.841-.486a14.894 14.894 0 0 1 1.5 5.632h-.962a.996.996 0 1 0 0 1.992z"/>
        <path fill="#FFF" d="M29.616 15.083l-9.809 4.204c-.216.092-.42.285-.52.52l-4.204 9.81c-.352.819.48 1.652 1.3 1.3l9.81-4.204c.221-.094.421-.289.52-.52l4.204-9.81c.352-.82-.48-1.652-1.3-1.3zM17.88 28.12l2.652-6.187 3.535 3.535-6.187 2.652zm7.588-4.053l-3.535-3.535 6.187-2.652-2.652 6.187z"/>
    </g>
</svg>
