<svg xmlns="http://www.w3.org/2000/svg" width="47" height="47" viewBox="0 0 47 47">
    <g fill="none" fill-rule="evenodd">
        <path fill="#D8D8D8" d="M6 38.132h24.544l-1.637-14.319C28.65 21.271 27.148 20 24.402 20h-12.28c-2.677.076-4.17 1.347-4.48 3.813-.31 2.466-.858 7.24-1.642 14.319z"/>
        <path fill="#D8D8D8" d="M17.846 5a2.846 2.846 0 0 1 2.843 2.996l-.738 14.007a2.108 2.108 0 0 1-4.21 0l-.737-14.007A2.846 2.846 0 0 1 17.846 5zM33 32a1.983 1.983 0 0 1-1.982-2.055l.562-15.575a1.421 1.421 0 1 1 2.84 0l.562 15.575A1.983 1.983 0 0 1 33 32z"/>
        <path fill="#D8D8D8" d="M27.327 15.527L26 6h14.48l-.955 8.999c-.03 1.296-.812 1.944-2.346 1.944h-7.396c-.459.024-.943-.058-1.452-.247-.51-.188-.844-.578-1.004-1.17z"/>
        <path fill="#FFF" fill-rule="nonzero" d="M9.495 35.278l-.994-.11 1.111-10.082c.112-1.063.418-1.85.946-2.347.542-.51 1.448-.74 2.722-.74l10.565.004c1.21.156 2.048.506 2.5 1.098.421.549.647 1.225.68 1.995l.86 10.085-.997.085-.86-10.106c-.026-.593-.186-1.072-.476-1.451-.257-.335-.864-.59-1.771-.71H13.28c-1.043 0-1.722.172-2.036.468-.327.308-.549.878-.638 1.726L9.495 35.278zM28.71 14.374v-1h9v1z"/>
        <path fill="#FFF" fill-rule="nonzero" d="M31.577 14.067l-.994.11-.567-5.14.994-.11zM35.803 14.032l-.977-.213 1.186-5.426.976.214z"/>
    </g>
</svg>
