<svg xmlns="http://www.w3.org/2000/svg" xmlns:xlink="http://www.w3.org/1999/xlink" width="47" height="47" viewBox="0 0 47 47">
    <defs>
        <path id="a" d="M5.293 33.494a4.001 4.001 0 0 1 7.7 1.263A3 3 0 0 1 11 40H4c-.08 0-.161-.003-.24-.01a3.5 3.5 0 1 1 1.534-6.497z"/>
        <path id="b" d="M37.293 33.494a4.001 4.001 0 0 1 7.7 1.263A3 3 0 0 1 43 40h-7c-.08 0-.161-.003-.24-.01a3.5 3.5 0 1 1 1.534-6.497z"/>
    </defs>
    <g fill="none" fill-rule="evenodd">
        <path fill="#D8D8D8" d="M19 36H6V23L22 7l16 16v13H25v-9h-6v9zm3-16a3 3 0 1 0 0-6 3 3 0 0 0 0 6zM6 22V7h15zM38 22V7H23zM6 38h32v3H6z"/>
        <path fill="#D8D8D8" d="M12 2h5v6h-5z"/>
        <g transform="translate(0 2)">
            <use fill="#D8D8D8" xlink:href="#a"/>
            <path stroke="#FFF" d="M5.756 33.682l-.22.54-.5-.3A3 3 0 1 0 3.5 39.5c.076.001.15-.002.3-.007.067.005.134.008.201.008h7a2.5 2.5 0 0 0 1.66-4.369l-.154-.137-.012-.207a3.5 3.5 0 0 0-6.738-1.105z"/>
        </g>
        <g transform="matrix(-1 0 0 1 78 2)">
            <use fill="#D8D8D8" xlink:href="#b"/>
            <path stroke="#FFF" d="M37.756 33.682l-.22.54-.5-.3A3 3 0 1 0 35.5 39.5c.076.001.15-.002.3-.007.067.005.134.008.201.008h7a2.5 2.5 0 0 0 1.66-4.369l-.154-.137-.012-.207a3.5 3.5 0 0 0-6.738-1.105z"/>
        </g>
    </g>
</svg>
