<svg xmlns="http://www.w3.org/2000/svg" width="47" height="47" viewBox="0 0 47 47">
    <path fill="#CDCDCD" fill-rule="nonzero" d="M21.723 9.45c-.421.106-.672.519-.56.92.112.403.544.642.966.535a7.217 7.217 0 0 1 1.77-.217 7.04 7.04 0 0 1 2.657.51.821.821 0 0 0 .313.062c.306 0 .597-.17.726-.455a.74.74 0 0 0-.412-.99 8.7 8.7 0 0 0-3.285-.633c-.742 0-1.474.09-2.175.267zm-11.257 1.868a.818.818 0 0 1 1.115.064l1.166 1.255c.29.311.259.788-.068 1.063a.81.81 0 0 1-.523.19.806.806 0 0 1-.592-.254l-1.166-1.255a.729.729 0 0 1 .068-1.063zm17.973-2.886a.811.811 0 0 0 1.077-.285.735.735 0 0 0-.3-1.026C27.896 6.409 25.957 6 23.899 6s-3.996.409-5.318 1.12a.735.735 0 0 0-.299 1.027.816.816 0 0 0 1.077.285c1.075-.58 2.773-.926 4.54-.926 1.768 0 3.465.347 4.541.926zm-19.811 4.91l17.253 19.48 2.232 2.862a2.456 2.456 0 0 0 .4 2.29A2.716 2.716 0 0 0 30.66 39c.554 0 1.113-.163 1.59-.502l2.273-1.61c1.182-.837 1.429-2.436.55-3.563A2.719 2.719 0 0 0 32.89 32.3l-2.232-2.863L16.068 8.07c-.577-.847-1.544-1.254-2.721-1.147-1.999.18-4.328 1.831-5.086 3.603-.447 1.044-.317 2.044.367 2.816zm22.861 18.517l.575.728L28.6 35.15l-.612-.647 3.501-2.645zm2.43-14.313c2.801 0 5.081-2.173 5.081-4.844 0-2.672-2.28-4.845-5.082-4.845s-5.081 2.173-5.081 4.845c0 2.67 2.28 4.844 5.081 4.844z" opacity=".9"/>
</svg>
