<svg xmlns="http://www.w3.org/2000/svg" width="47" height="47" viewBox="0 0 47 47">
    <g fill="#00AE99" fill-rule="evenodd">
        <path d="M12.5 21H8V9a2 2 0 0 1 2-2h12v3.256a4.502 4.502 0 0 0 0 8.488V21h-5.5a2.5 2.5 0 1 1-4 0z"/>
        <path d="M22 32.5V38H10a2 2 0 0 1-2-2V24h2.256a4.502 4.502 0 0 0 8.488 0H22v4.5a2.5 2.5 0 1 1 0 4z"/>
        <path d="M33.5 24H39v12a2 2 0 0 1-2 2H25v-3.256a4.502 4.502 0 0 0 0-8.488V24h4.5a2.5 2.5 0 1 1 4 0z"/>
        <path d="M25 12.05V7h12a2 2 0 0 1 2 2v12h-3.256a4.502 4.502 0 0 0-8.488 0H25v-4.05a2.5 2.5 0 1 1 0-4.9z"/>
    </g>
</svg>
