<svg xmlns="http://www.w3.org/2000/svg" xmlns:xlink="http://www.w3.org/1999/xlink" width="110" height="98" viewBox="0 0 110 98">
    <defs>
        <path id="a" d="M44.268 22.096C44.268 9.893 34.358 0 22.134 0S0 9.893 0 22.096h44.268z"/>
        <path id="c" d="M44.268 22.096C44.268 9.893 34.358 0 22.134 0S0 9.893 0 22.096h44.268z"/>
        <path id="e" d="M57.683 28.791C57.683 12.891 44.77 0 28.84 0 12.913 0 0 12.89 0 28.791h57.683z"/>
    </defs>
    <g fill="none" fill-rule="evenodd">
        <path fill="#010002" fill-rule="nonzero" d="M41.66 43.51C-8.243 31.695 15.466-5.97 32.807 10.47c6.798-22.91 46.166-2.145 8.853 33.039zM80.246 29.164C64.696 3.966 89.754-1.733 90.121 12.06c12.13-6.578 19.725 17.973-9.875 17.104z" opacity=".053"/>
        <g transform="translate(0 20.134)">
            <path fill="#393939" d="M1.341 22.096h2.012v12.722H1.341z"/>
            <rect width="2.012" height="4.017" x="1.341" y="32.809" fill="#F7B601" rx="1.006"/>
            <path fill="#EFBBA5" d="M18.78 47.539h8.049v10.043H18.78z"/>
            <rect width="28.171" height="28.122" x="8.72" y="24.104" fill="#FFD5C3" rx="14.061"/>
            <ellipse cx="8.72" cy="38.165" fill="#FFD5C3" rx="2.683" ry="2.678"/>
            <ellipse cx="36.89" cy="38.165" fill="#FFD5C3" rx="2.683" ry="2.678"/>
            <g transform="translate(0 54.904)">
                <mask id="b" fill="#fff">
                    <use xlink:href="#a"/>
                </mask>
                <use fill="#393939" xlink:href="#a"/>
                <path fill="#FFF" d="M17.254 0l4.65 4.641V9.68L12.744.535z" mask="url(#b)"/>
                <path fill="#FFF" d="M26.645 0l4.65 4.641V9.68L22.134.535z" mask="url(#b)" transform="matrix(-1 0 0 1 53.428 0)"/>
            </g>
            <ellipse cx="17.774" cy="37.161" fill="#393939" rx="1.677" ry="1.674"/>
            <ellipse cx="27.835" cy="37.161" fill="#393939" rx="1.677" ry="1.674"/>
            <rect width="2.683" height="6.026" x="21.463" y="36.826" fill="#DCA48C" rx="1.341"/>
            <path fill="#F27367" fill-rule="nonzero" d="M16.276 43.831a1.06 1.06 0 0 1 .296-1.47 1.064 1.064 0 0 1 1.473.295c1.139 1.708 2.491 2.512 4.139 2.512 1.676 0 3.195-.834 4.607-2.589a1.064 1.064 0 0 1 1.494-.163 1.06 1.06 0 0 1 .163 1.492c-1.791 2.226-3.895 3.382-6.264 3.382-2.398 0-4.394-1.186-5.908-3.459z"/>
            <path fill="#393939" d="M8.72 37.059l14.182-5.788V16.739L9.123 25z"/>
            <path fill="#393939" d="M36.89 37.059L22.707 31.27V16.739L36.487 25z"/>
            <path fill="#393939" d="M22.376 12.483l21.328 9.382-21.313 7.732-21.327-7.77z"/>
        </g>
        <g transform="translate(65.732 36.204)">
            <path fill="#EFBBA5" d="M18.11 31.47h8.049v10.043H18.11z"/>
            <ellipse cx="22.47" cy="6.361" fill="#393939" rx="6.372" ry="6.361"/>
            <path fill="#393939" d="M7.378 20.422c0-8.32 6.757-15.065 15.092-15.065 8.334 0 15.091 6.744 15.091 15.065"/>
            <rect width="30.183" height="7.365" x="7.378" y="16.739" fill="#393939" rx="3.683"/>
            <rect width="27.5" height="27.452" x="8.72" y="8.035" fill="#FFD5C3" rx="13.726"/>
            <path fill="#393939" d="M22.13 12.45c-2.653 2.633-4.918 4.246-6.796 4.839-1.877.593-4.082.89-6.614.89l1.419-3.826 2.733-3.432 4.493-2.75 5.22-.806h5.054l5.052 3.556 2.072 2.771 1.885 3.597v.89c-4.783-.466-7.786-1.119-9.01-1.96-1.223-.841-3.06-2.098-5.509-3.77z"/>
            <ellipse cx="17.104" cy="21.091" fill="#393939" rx="1.677" ry="1.674"/>
            <ellipse cx="27.165" cy="21.091" fill="#393939" rx="1.677" ry="1.674"/>
            <rect width="2.683" height="6.026" x="20.793" y="20.757" fill="#DCA48C" rx="1.341"/>
            <path fill="#F27367" fill-rule="nonzero" d="M16.276 27.762a1.06 1.06 0 0 1 .296-1.471 1.064 1.064 0 0 1 1.473.295c1.139 1.709 2.491 2.513 4.139 2.513 1.676 0 3.195-.835 4.607-2.59a1.064 1.064 0 0 1 1.494-.162 1.06 1.06 0 0 1 .163 1.491c-1.791 2.227-3.895 3.383-6.264 3.383-2.398 0-4.394-1.187-5.908-3.46z"/>
            <ellipse cx="9.055" cy="21.091" fill="#FFD5C3" rx="3.018" ry="3.013"/>
            <ellipse cx="35.884" cy="21.091" fill="#FFD5C3" rx="3.018" ry="3.013"/>
            <g transform="translate(0 38.835)">
                <mask id="d" fill="#fff">
                    <use xlink:href="#c"/>
                </mask>
                <use fill="#FFF" xlink:href="#c"/>
                <path fill="#B9B9B9" d="M0 3.348h9.39v21.426H0V3.348zm34.878 0h9.39v21.426h-9.39V3.348z" mask="url(#d)"/>
            </g>
            <ellipse cx="22.134" cy="39.17" fill="#EFBBA5" rx="4.024" ry="1.674"/>
        </g>
        <g transform="translate(28.17 20.804)">
            <rect width="40.244" height="40.174" x="8.049" fill="#393939" rx="20.087"/>
            <path fill="#393939" d="M48.293 18.078v17.813c0 7.543-6.907 13.657-15.427 13.657h-9.39c-8.52 0-15.427-6.114-15.427-13.657V18.078"/>
            <ellipse cx="9.055" cy="23.77" fill="#FFD5C3" rx="3.689" ry="3.683"/>
            <path fill="#EFBBA5" d="M22.805 36.157h10.732v13.391H22.805z"/>
            <ellipse cx="47.287" cy="23.77" fill="#FFD5C3" rx="3.689" ry="3.683"/>
            <rect width="38.902" height="38.835" x="8.72" y="4.017" fill="#FFD5C3" rx="19.417"/>
            <path fill="#F27367" fill-rule="nonzero" d="M20.347 30.872a1.338 1.338 0 0 1 .374-1.856 1.343 1.343 0 0 1 1.86.373c1.436 2.156 3.144 3.17 5.223 3.17 2.115 0 4.033-1.053 5.814-3.267a1.343 1.343 0 0 1 1.886-.206c.578.464.67 1.306.206 1.883-2.26 2.81-4.916 4.269-7.906 4.269-3.026 0-5.546-1.497-7.457-4.366z"/>
            <ellipse cx="20.793" cy="22.096" fill="#393939" rx="2.012" ry="2.009"/>
            <rect width="2.683" height="6.026" x="26.829" y="23.435" fill="#DCA48C" rx="1.341"/>
            <ellipse cx="34.878" cy="22.096" fill="#393939" rx="2.012" ry="2.009"/>
            <path fill="#393939" d="M32.75 12.492c-2.045 2.282-4.612 3.894-7.701 4.836-3.09.942-8.475 1.86-16.158 2.753l1.705-9.042 4.844-3.756 7.603-2.771 5.527-1.284 6.547 1.284 6.919 2.77 5.59 7.522-.196 5.277c-4.896-1.095-8.035-2.013-9.418-2.753-1.383-.74-3.137-2.353-5.261-4.836z"/>
            <g transform="translate(0 47.54)">
                <mask id="f" fill="#fff">
                    <use xlink:href="#e"/>
                </mask>
                <use fill="#FFF" xlink:href="#e"/>
                <path fill="#F7B601" d="M12.073 0h6.707v16.739h-6.707zM37.561 0h6.707v16.739h-6.707z" mask="url(#f)"/>
            </g>
            <path fill="#F7B601" d="M12.073 59.591h32.195V76.33H12.073z"/>
        </g>
    </g>
</svg>
